<?xml version="1.0" standalone="no"?>
<!DOCTYPE svg PUBLIC "-//W3C//DTD SVG 20010904//EN"
 "http://www.w3.org/TR/2001/REC-SVG-20010904/DTD/svg10.dtd">
<svg version="1.0" xmlns="http://www.w3.org/2000/svg"
 width="1720.000000pt" height="1720.000000pt" viewBox="0 0 1720.000000 1720.000000"
 preserveAspectRatio="xMidYMid meet">
<metadata>
Created by potrace 1.11, written by Peter Selinger 2001-2013
</metadata>
<g transform="translate(0.000000,1720.000000) scale(0.100000,-0.100000)"
fill="#000000" stroke="none">
<path d="M3489 11826 c-2 -2 -44 -7 -94 -11 -49 -4 -106 -8 -125 -10 -43 -3
-135 -15 -164 -21 -12 -2 -36 -7 -55 -10 -18 -3 -42 -8 -52 -10 -11 -2 -29 -6
-41 -9 -13 -2 -35 -7 -50 -11 -15 -3 -30 -4 -32 -2 -2 2 -14 -6 -25 -16 -33
-30 -88 -48 -171 -55 -41 -4 -93 -13 -115 -21 -169 -56 -212 -75 -242 -107
-27 -28 -39 -33 -77 -33 -25 0 -55 -4 -68 -9 -13 -5 -27 -9 -32 -9 -5 0 -12
-5 -15 -10 -3 -5 -75 -45 -158 -89 -178 -92 -243 -135 -243 -161 0 -28 -20
-42 -61 -42 -37 0 -96 -37 -189 -117 -14 -12 -36 -31 -50 -43 -34 -28 -125
-109 -158 -140 -15 -14 -49 -52 -77 -85 -27 -33 -60 -71 -73 -85 -12 -14 -25
-36 -29 -50 -11 -47 -46 -99 -75 -111 -35 -14 -78 -74 -87 -121 -4 -20 -16
-37 -30 -44 -20 -10 -71 -74 -71 -89 0 -3 -11 -23 -25 -44 -13 -22 -29 -60
-36 -84 -6 -25 -22 -56 -35 -68 -13 -12 -24 -27 -24 -32 0 -5 -9 -22 -21 -38
-11 -16 -17 -29 -13 -29 4 0 1 -8 -7 -17 -31 -37 -53 -100 -59 -163 -4 -54 -9
-67 -26 -74 -20 -9 -35 -36 -62 -111 -11 -31 -42 -139 -43 -152 -1 -5 -6 -19
-11 -33 -11 -27 -28 -159 -33 -255 -2 -33 -4 -65 -4 -71 -1 -7 -12 -15 -26
-18 -14 -4 -25 -14 -26 -24 0 -9 -2 -26 -5 -37 -2 -11 -6 -33 -9 -50 -2 -16
-7 -41 -9 -54 -25 -116 -25 -479 0 -611 3 -14 7 -41 9 -60 11 -98 18 -120 40
-120 16 0 22 -19 30 -100 23 -230 23 -233 59 -345 8 -27 24 -79 34 -115 13
-48 23 -66 38 -69 36 -6 44 -22 44 -90 0 -69 18 -128 70 -231 15 -30 57 -114
94 -187 51 -100 72 -132 88 -135 23 -3 26 -8 58 -88 20 -48 113 -187 145 -215
6 -5 23 -26 37 -45 46 -61 102 -117 126 -124 12 -4 22 -15 22 -25 0 -16 119
-133 172 -170 13 -8 28 -20 33 -27 26 -30 142 -104 164 -104 34 0 88 -39 106
-77 17 -35 68 -69 119 -79 20 -3 41 -16 50 -29 9 -13 57 -44 108 -70 51 -26
97 -51 102 -56 6 -5 27 -9 47 -9 30 0 42 -6 57 -27 13 -18 44 -37 84 -52 34
-13 81 -32 103 -41 22 -10 49 -21 60 -26 11 -4 65 -10 120 -13 93 -6 100 -8
112 -31 13 -27 36 -36 136 -54 12 -2 29 -7 37 -10 8 -3 38 -8 65 -10 28 -3 60
-7 72 -10 53 -11 172 -22 363 -32 182 -10 10222 -10 10420 -1 146 8 172 10
290 22 75 7 100 11 155 21 22 4 47 8 55 9 8 1 31 5 50 9 19 4 42 8 50 10 94
16 126 28 135 49 9 20 20 23 105 29 52 3 112 13 132 22 21 9 39 16 40 15 5 -1
41 13 107 41 66 29 96 49 103 70 2 8 23 14 48 15 48 2 69 9 153 51 87 43 99
51 111 75 9 18 22 25 56 29 52 6 87 26 227 130 56 41 120 88 142 103 22 15 46
40 53 54 7 15 23 30 35 33 31 7 123 96 123 118 0 23 19 42 41 42 23 0 117 95
121 123 2 12 13 27 26 33 27 13 74 56 68 62 -2 2 2 11 11 20 23 26 119 156
168 228 36 52 45 74 45 108 0 44 13 66 40 66 26 0 120 200 120 255 0 37 4 47
26 62 14 9 36 39 49 67 24 54 66 164 69 181 1 6 4 15 8 20 3 6 6 50 7 100 1
49 5 93 8 98 3 4 16 12 29 17 14 6 25 18 25 30 1 11 2 23 3 28 1 4 6 27 10 52
5 25 10 54 12 65 3 11 7 36 10 55 2 19 7 46 10 60 36 189 34 724 -3 783 -4 6
-8 53 -9 102 -1 50 -4 101 -7 115 -9 42 -19 94 -21 110 -2 8 -12 16 -24 18
-11 2 -25 9 -30 15 -6 7 -12 71 -15 142 -3 72 -8 141 -11 155 -10 45 -46 143
-57 156 -6 8 -9 14 -6 14 12 0 -51 133 -67 142 -9 5 -16 22 -16 39 0 25 -91
231 -110 249 -3 3 -11 16 -18 30 -13 26 -53 94 -87 148 -12 18 -30 32 -44 34
-26 3 -31 10 -54 81 -28 84 -227 327 -267 327 -14 0 -26 14 -40 43 -20 42
-103 130 -114 120 -13 -13 -48 12 -66 47 -11 21 -37 51 -57 67 -55 41 -62 46
-87 68 -35 32 -63 45 -95 45 -30 0 -44 12 -70 61 -9 17 -29 39 -46 48 -16 9
-32 18 -35 21 -3 3 -21 13 -40 22 -38 18 -92 50 -100 58 -3 3 -21 14 -40 25
-112 63 -158 85 -179 85 -14 0 -34 8 -45 18 -32 28 -230 104 -311 119 -16 3
-37 8 -45 13 -8 4 -49 8 -90 9 -124 3 -162 11 -195 41 -16 15 -43 31 -60 34
-16 4 -41 9 -55 12 -47 9 -110 19 -190 29 -25 3 -56 8 -70 11 -14 2 -50 7 -80
10 -30 2 -82 8 -115 11 -63 7 -10289 16 -10296 9z"/>
</g>
</svg>
